<svg width="117" height="31" viewBox="0 0 117 31" fill="none" xmlns="http://www.w3.org/2000/svg">
<path d="M85.1147 14.0047L86.9516 19.0525L87.0339 19.2786H87.2745H93.1029L88.4224 22.3149L88.193 22.4637L88.2865 22.7206L90.0955 27.6916L85.3016 24.5819L85.1147 24.4606L84.9277 24.5819L80.1339 27.6916L81.9429 22.7206L82.0364 22.4637L81.807 22.3149L77.1264 19.2786H82.9548H83.1954L83.2777 19.0525L85.1147 14.0047Z" fill="white" stroke="white" stroke-width="0.687143"/>
<path d="M96.62 1.00468L98.457 6.05254L98.5392 6.27862H98.7798H104.608L99.9277 9.31488L99.6983 9.46367L99.7918 9.7206L101.601 14.6916L96.807 11.5819L96.62 11.4606L96.433 11.5819L91.6392 14.6916L93.4482 9.7206L93.5417 9.46367L93.3123 9.31488L88.6318 6.27862H94.4602H94.7008L94.783 6.05254L96.62 1.00468Z" fill="white" stroke="white" stroke-width="0.687143"/>
<path d="M106.62 14.0047L108.457 19.0525L108.539 19.2786H108.78H114.608L109.928 22.3149L109.698 22.4637L109.792 22.7206L111.601 27.6916L106.807 24.5819L106.62 24.4606L106.433 24.5819L101.639 27.6916L103.448 22.7206L103.542 22.4637L103.312 22.3149L98.6318 19.2786H104.46H104.701L104.783 19.0525L106.62 14.0047Z" fill="white"/>
<path d="M106.62 14.0047L108.457 19.0525L108.539 19.2786H108.78H114.608L109.928 22.3149L109.698 22.4637L109.792 22.7206L111.601 27.6916L106.807 24.5819L106.62 24.4606L106.433 24.5819L101.639 27.6916L103.448 22.7206L103.542 22.4637L103.312 22.3149L98.6318 19.2786H104.46H104.701L104.783 19.0525L106.62 14.0047Z" stroke="white" stroke-width="0.687143"/>
<path d="M106.62 14.0047L108.457 19.0525L108.539 19.2786H108.78H114.608L109.928 22.3149L109.698 22.4637L109.792 22.7206L111.601 27.6916L106.807 24.5819L106.62 24.4606L106.433 24.5819L101.639 27.6916L103.448 22.7206L103.542 22.4637L103.312 22.3149L98.6318 19.2786H104.46H104.701L104.783 19.0525L106.62 14.0047Z" stroke="white" stroke-width="0.687143"/>
<path d="M13.6268 15.6625C14.5419 15.6625 15.3396 15.5512 16.0197 15.3286C16.6999 15.0937 17.2626 14.766 17.7078 14.3455C18.1654 13.9127 18.5054 13.3933 18.728 12.7873C18.9506 12.169 19.0619 11.4826 19.0619 10.7282C19.0619 10.011 18.9506 9.36173 18.728 8.7805C18.5054 8.19927 18.1715 7.7046 17.7263 7.2965C17.2811 6.8884 16.7185 6.57923 16.0383 6.369C15.3581 6.1464 14.5543 6.0351 13.6268 6.0351H9.89824V15.6625H13.6268ZM13.6268 2.1767C15.42 2.1767 16.972 2.38693 18.2828 2.8074C19.5937 3.22787 20.6758 3.81528 21.5291 4.56965C22.3824 5.32402 23.0131 6.22678 23.4212 7.27795C23.8417 8.32912 24.0519 9.47922 24.0519 10.7282C24.0519 12.0267 23.8355 13.2201 23.4026 14.3084C22.9698 15.3843 22.3206 16.3118 21.4549 17.0909C20.5892 17.87 19.501 18.476 18.1901 18.9088C16.8916 19.3416 15.3705 19.5581 13.6268 19.5581H9.89824V29H4.90829V2.1767H13.6268ZM37.5569 20.8751C36.2336 20.9369 35.1206 21.0544 34.2179 21.2275C33.3151 21.3883 32.5917 21.5985 32.0475 21.8582C31.5034 22.1179 31.1138 22.4209 30.8789 22.7672C30.6439 23.1135 30.5264 23.4906 30.5264 23.8988C30.5264 24.7026 30.7614 25.2776 31.2313 25.6239C31.7136 25.9702 32.3381 26.1433 33.1049 26.1433C34.0447 26.1433 34.8548 25.9763 35.5349 25.6424C36.2275 25.2962 36.9014 24.7768 37.5569 24.0842V20.8751ZM27.0576 12.6204C29.2465 10.6169 31.8806 9.61525 34.9599 9.61525C36.0729 9.61525 37.0684 9.80075 37.9464 10.1717C38.8245 10.5304 39.5665 11.0374 40.1724 11.6929C40.7784 12.3359 41.236 13.1088 41.5451 14.0116C41.8667 14.9144 42.0274 15.9037 42.0274 16.9796V29H39.9498C39.517 29 39.1831 28.9382 38.9481 28.8145C38.7132 28.6785 38.5277 28.4126 38.3916 28.0168L37.9835 26.6442C37.5012 27.077 37.0313 27.4603 36.5737 27.7942C36.1162 28.1158 35.64 28.3879 35.1454 28.6104C34.6507 28.833 34.1189 29 33.5501 29.1113C32.9936 29.235 32.3752 29.2968 31.6951 29.2968C30.8912 29.2968 30.1492 29.1917 29.4691 28.9814C28.7889 28.7588 28.2015 28.4311 27.7068 27.9983C27.2122 27.5655 26.8288 27.0275 26.5567 26.3845C26.2847 25.7414 26.1486 24.9932 26.1486 24.1399C26.1486 23.6576 26.229 23.1815 26.3898 22.7115C26.5505 22.2292 26.8102 21.7717 27.1689 21.3388C27.5399 20.906 28.016 20.4979 28.5972 20.1145C29.1785 19.7312 29.8895 19.3973 30.7305 19.1128C31.5838 18.8284 32.5731 18.5996 33.6985 18.4265C34.8238 18.241 36.11 18.1297 37.5569 18.0926V16.9796C37.5569 15.7058 37.2848 14.766 36.7407 14.16C36.1965 13.5417 35.4113 13.2325 34.3848 13.2325C33.6428 13.2325 33.0245 13.3191 32.5298 13.4922C32.0475 13.6653 31.6209 13.8632 31.2499 14.0858C30.8789 14.296 30.5388 14.4877 30.2296 14.6608C29.9328 14.834 29.5989 14.9205 29.2279 14.9205C28.9064 14.9205 28.6343 14.8402 28.4117 14.6794C28.1891 14.5063 28.0098 14.3084 27.8738 14.0858L27.0576 12.6204ZM63.6683 9.9677V29H60.8673C60.2613 29 59.8779 28.7218 59.7172 28.1653L59.4018 26.6442C58.6227 27.4356 57.7632 28.0787 56.8234 28.5733C55.8835 29.0556 54.7767 29.2968 53.5029 29.2968C52.4641 29.2968 51.5428 29.1237 50.739 28.7774C49.9475 28.4188 49.2797 27.9179 48.7356 27.2749C48.1914 26.6318 47.7771 25.8712 47.4927 24.9932C47.2206 24.1028 47.0846 23.1258 47.0846 22.0623V9.9677H51.6665V22.0623C51.6665 23.2248 51.9323 24.1275 52.4641 24.7706C53.0082 25.4013 53.8183 25.7167 54.8942 25.7167C55.6856 25.7167 56.4276 25.5435 57.1202 25.1972C57.8127 24.8386 58.4681 24.3501 59.0865 23.7318V9.9677H63.6683ZM73.7763 1.4347V29H69.1945V1.4347H73.7763Z" fill="white"/>
</svg>
