<?xml version="1.0" standalone="no"?>
<!DOCTYPE svg PUBLIC "-//W3C//DTD SVG 20010904//EN"
 "http://www.w3.org/TR/2001/REC-SVG-20010904/DTD/svg10.dtd">
<svg version="1.0" xmlns="http://www.w3.org/2000/svg"
 width="200.000000pt" height="200.000000pt" viewBox="0 0 200.000000 200.000000"
 preserveAspectRatio="xMidYMid meet">
<metadata>
Created by potrace 1.11, written by Peter Selinger 2001-2013
</metadata>
<g transform="translate(0.000000,200.000000) scale(0.100000,-0.100000)"
fill="#000000" stroke="none">
<path d="M0 1000 l0 -500 1000 0 1000 0 0 500 0 500 -1000 0 -1000 0 0 -500z
m1611 388 l14 -73 53 -3 53 -3 -41 -46 c-43 -49 -45 -55 -30 -123 22 -101 24
-99 -25 -45 l-45 50 -45 -50 c-49 -55 -50 -55 -24 45 15 58 11 75 -31 123
l-41 46 53 3 53 3 14 73 c8 39 18 72 21 72 3 0 13 -33 21 -72z m-351 -379 l0
-420 -42 3 -43 3 -3 418 -2 417 45 0 45 0 0 -421z m-980 366 c83 -43 127 -187
100 -330 -22 -116 -73 -167 -175 -173 l-65 -4 0 -139 0 -139 -45 0 -45 0 0
400 0 400 100 0 c70 0 110 -5 130 -15z m356 -191 c18 -9 44 -33 56 -53 22 -34
23 -50 29 -271 3 -129 10 -243 14 -253 7 -16 3 -18 -41 -15 -41 2 -49 6 -52
24 -3 21 -4 20 -32 -7 -47 -47 -102 -34 -141 35 -19 33 -23 55 -23 116 0 125
49 190 144 190 l40 0 0 47 c0 45 -20 83 -43 83 -18 0 -47 -32 -47 -52 0 -15
-8 -18 -45 -18 -50 0 -55 9 -33 71 17 51 47 90 82 105 41 17 51 17 92 -2z
m254 -206 c0 -233 6 -261 52 -266 53 -6 58 18 58 261 l0 218 43 -3 42 -3 3
-297 2 -298 -39 0 c-31 0 -41 4 -46 20 -6 20 -7 20 -37 -5 -57 -48 -123 -22
-148 61 -13 41 -27 482 -16 509 3 10 19 15 46 15 l40 0 0 -212z m560 -43 l13
-74 53 -3 54 -3 -42 -49 -41 -48 15 -81 16 -82 -44 48 -43 48 -35 -38 c-20
-21 -36 -41 -36 -45 0 -5 -4 -8 -8 -8 -5 0 -2 36 6 79 l15 79 -42 51 -43 51
55 0 54 0 13 75 c7 41 16 75 20 75 4 0 13 -34 20 -75z m400 -17 l11 -58 50 0
c27 0 49 -3 49 -6 0 -3 -18 -26 -39 -52 l-40 -47 14 -65 c21 -96 19 -100 -28
-46 l-43 48 -38 -46 c-21 -26 -40 -45 -42 -43 -3 2 2 37 11 76 14 69 14 74 -4
99 -10 15 -28 36 -40 46 -32 29 -26 36 28 36 55 0 52 -5 72 95 13 68 20 61 39
-37z"/>
<path d="M140 1135 l0 -125 59 0 c76 0 85 11 90 111 3 76 2 79 -27 109 -25 25
-39 30 -76 30 l-46 0 0 -125z"/>
<path d="M556 841 c-28 -31 -32 -92 -8 -121 20 -24 22 -24 49 -10 26 14 28 21
31 83 l3 67 -29 0 c-16 0 -37 -9 -46 -19z"/>
</g>
</svg>
